<svg width="262" height="49" viewBox="0 0 262 49" fill="none" xmlns="http://www.w3.org/2000/svg">
<g clip-path="url(#clip0_90_227)">
<path d="M0.294037 45.732C2.97146 45.732 3.80833 45.6224 3.80833 45.0661V26.1635C3.80833 24.7782 2.97146 24.3904 0.294037 24.3904C-0.0961255 24.3904 -0.0961255 21.2854 0.294037 21.1758L12.1742 19.5123V23.2271C13.5681 21.01 16.9155 19.6247 20.4298 19.6247C23.9441 19.6247 27.6252 21.01 29.6891 24.4466C31.5297 21.6198 34.8772 19.6247 39.2255 19.6247C44.5803 19.6247 50.2688 23.2271 50.2688 31.0444V45.0689C50.2688 45.6224 51.1057 45.7348 53.7831 45.7348C54.1733 45.7348 54.1733 48.9494 53.7831 48.9494H38.3886C38.055 48.9494 38.055 45.7348 38.3886 45.7348C41.1226 45.7348 41.9029 45.6252 41.9029 45.0689V33.2614C41.9029 26.2759 39.169 23.893 36.4944 23.893C33.8735 23.893 31.2526 26.1101 31.0858 28.7149C31.2526 29.2685 31.3092 32.4831 31.3092 33.2614V45.0689C31.3092 45.6224 32.146 45.7348 34.8235 45.7348C35.2136 45.7348 35.2136 48.9494 34.8235 48.9494H19.429C19.0954 48.9494 19.0954 45.7348 19.429 45.7348C22.1629 45.7348 22.9433 45.6252 22.9433 45.0689V33.2614C22.9433 26.2225 20.3224 23.7835 17.645 23.7835C14.9676 23.7835 12.2364 26.2787 12.1799 28.9931V45.0689C12.1799 45.6224 13.0167 45.7348 15.6942 45.7348C16.0278 45.7348 16.0278 48.9494 15.6942 48.9494H0.294037C-0.0395801 48.9494 -0.0395801 45.7348 0.294037 45.7348V45.732Z" fill="white"/>
<path d="M68.1117 49C61.4195 49 54.8377 44.1781 54.8377 34.6439C54.8377 26.1635 60.3028 19.7877 67.7215 19.6219C73.3534 19.5123 79.8788 24.3876 79.6017 34.3658H63.2035C63.0367 40.5196 66.6613 44.0095 70.676 44.0095C72.9067 44.0095 75.2505 42.9558 77.1448 40.6291C77.535 40.1852 79.319 42.7366 78.8185 43.5122C76.2542 47.1707 72.1264 49 68.1088 49H68.1117ZM71.069 31.1512C71.069 26.7733 69.6186 22.8365 67.4982 22.8365C64.5974 22.8365 63.3704 28.212 63.3138 31.1512H71.0662H71.069Z" fill="white"/>
<path d="M93.7691 45.066C93.7691 45.6196 94.6625 45.732 97.4502 45.732C97.8404 45.732 97.8404 48.9466 97.4502 48.9466H81.8352C81.4451 48.9466 81.4451 45.732 81.8352 45.732C84.6229 45.732 85.4061 45.6224 85.4061 45.066V26.2196C85.4061 24.8343 84.7926 24.4466 81.8352 24.4466C81.3885 24.4466 81.3885 21.2882 81.8352 21.232L93.772 19.5685V22.8955C95.7793 20.7346 98.01 19.5685 100.854 19.5685C109.164 19.6247 109.387 27.9927 105.762 29.6028C105.092 29.9344 104.479 30.0468 103.978 30.0468C100.854 30.0468 100.967 24.9467 98.7366 24.337C96.6162 23.7834 93.9953 26.332 93.772 28.8835V45.0688L93.7691 45.066Z" fill="white"/>
<path d="M130.521 30.3756C124.386 31.4856 127.23 22.8365 123.772 22.8365C120.984 22.8365 118.364 27.6584 118.307 34.0904C118.307 41.7953 121.821 45.1223 125.669 45.1223C127.399 45.1223 129.183 44.4563 130.801 43.1834C131.524 42.6299 132.751 45.6225 132.028 46.2884C129.964 48.0081 127.063 48.9494 124.052 48.9494C117.247 48.9494 109.885 44.3496 109.941 34.0932C109.998 26.8323 115.463 19.6248 123.772 19.6248C134.035 19.6248 134.592 29.6029 130.521 30.3785V30.3756Z" fill="white"/>
<path d="M143.738 48.8904C134.145 49.5563 133.029 39.2466 140.224 34.5905C143.292 32.0952 147.196 30.3784 150.32 29.8782C150.32 26.0538 149.707 22.5611 147.029 22.8393C143.014 23.2832 145.635 31.3759 139.89 30.3222C135.596 29.5466 136.766 19.9562 147.029 19.6247C156.009 19.3465 158.686 25.8881 158.686 31.4321V42.8518C158.686 44.0151 159.076 44.4591 159.633 44.4591C160.023 44.4591 160.47 44.2371 160.86 44.0151C161.474 43.6273 162.144 46.7323 161.474 47.2297C160.413 48.0614 157.849 48.9494 155.059 48.9494C152.438 48.9494 150.707 47.9518 150.43 46.6761C148.7 47.8394 146.303 48.7274 143.738 48.8932V48.8904ZM150.32 33.0366C147.81 34.0341 145.355 35.4756 144.241 37.7489C143.238 39.6344 143.294 43.2367 145.692 44.1247C146.082 44.2343 146.529 44.3467 146.975 44.3467C147.979 44.3467 149.15 43.9589 150.323 43.2929V33.0394L150.32 33.0366Z" fill="white"/>
<path d="M182.39 46.2856C180.326 47.9491 177.762 48.8342 175.141 48.8342C169.119 48.8342 163.094 44.1781 163.317 34.0342C163.54 25.2755 169.396 18.9026 177.875 19.7343C180.162 19.9001 181.612 20.9538 182.393 21.9514V6.65116C182.393 5.20966 181.332 4.87808 177.818 4.87808C177.315 4.87808 177.315 1.71969 177.818 1.66349L190.759 0V42.2926C190.759 43.6779 191.149 44.0123 194.106 44.0123C194.553 44.0123 194.553 47.2269 194.106 47.2831L182.393 48.9466V46.2856H182.39ZM182.39 29.8783C182.39 27.7174 181.776 23.3929 177.872 23.1147C174.024 22.6707 171.57 27.605 171.68 34.0342C171.847 41.1293 174.468 44.9537 177.535 44.9537C179.153 44.9537 180.826 43.8999 182.387 41.7391V29.8754L182.39 29.8783Z" fill="white"/>
<path d="M201.463 26.2197C201.463 24.8344 200.626 24.4466 197.948 24.4466C197.558 24.4466 197.558 21.2882 197.948 21.232L209.828 19.5685V45.0661C209.828 45.6196 210.665 45.732 213.343 45.732C213.676 45.732 213.676 48.9466 213.343 48.9466H197.948C197.615 48.9466 197.615 45.732 197.948 45.732C200.626 45.732 201.463 45.6224 201.463 45.0661V26.2197ZM205.2 7.31714C211.169 7.31714 211.169 16.1854 205.2 16.1854C199.288 16.1854 199.288 7.31714 205.2 7.31714Z" fill="white"/>
<path d="M216.747 22.7831H214.069C213.566 22.7831 213.566 19.5685 214.069 19.5685C217.193 19.5685 221.208 15.9099 222.435 10.0343C222.492 9.75612 223.159 9.59033 223.829 9.59033C224.499 9.59033 225.113 9.75612 225.113 10.0343C225.113 12.0294 225.113 17.905 225.113 19.5685H230.411C230.968 19.5685 230.968 22.7831 230.411 22.7831H225.113V38.7464C225.113 42.7928 226.563 44.7316 228.514 44.7316C229.407 44.7316 230.354 44.3439 231.302 43.5683C231.915 43.0681 233.252 45.9511 232.585 46.5609C230.855 48.112 228.624 48.9438 226.34 48.9438C221.598 48.9438 216.747 45.5072 216.747 38.7436V22.7803V22.7831Z" fill="white"/>
<path d="M247.533 19.5123C266.886 19.5123 266.775 48.9466 247.476 48.9466C228.291 48.9466 228.514 19.5123 247.533 19.5123ZM247.533 22.7831C239.724 22.7831 239.39 45.732 247.476 45.732C255.619 45.732 255.675 22.7831 247.533 22.7831Z" fill="white"/>
</g>
<defs>
<clipPath id="clip0_90_227">
<rect width="262" height="49" fill="white"/>
</clipPath>
</defs>
</svg>
