<svg width="131" height="26" viewBox="0 0 131 26" fill="none" xmlns="http://www.w3.org/2000/svg">
<g clip-path="url(#clip0_90_253)">
<path d="M0.147018 23.6814C1.48573 23.6814 1.90416 23.6263 1.90416 23.3464V13.8369C1.90416 13.1399 1.48573 12.9449 0.147018 12.9449C-0.0480637 12.9449 -0.0480637 11.3828 0.147018 11.3277L6.08711 10.4908V12.3596C6.78403 11.2443 8.45777 10.5473 10.2149 10.5473C11.9721 10.5473 13.8126 11.2443 14.8446 12.9731C15.7648 11.551 17.4386 10.5473 19.6128 10.5473C22.2902 10.5473 25.1344 12.3596 25.1344 16.2924V23.3478C25.1344 23.6263 25.5528 23.6828 26.8915 23.6828C27.0866 23.6828 27.0866 25.3 26.8915 25.3H19.1943C19.0275 25.3 19.0275 23.6828 19.1943 23.6828C20.5613 23.6828 20.9515 23.6277 20.9515 23.3478V17.4077C20.9515 13.8934 19.5845 12.6947 18.2472 12.6947C16.9367 12.6947 15.6263 13.81 15.5429 15.1205C15.6263 15.3989 15.6546 17.0161 15.6546 17.4077V23.3478C15.6546 23.6263 16.073 23.6828 17.4117 23.6828C17.6068 23.6828 17.6068 25.3 17.4117 25.3H9.71449C9.54768 25.3 9.54768 23.6828 9.71449 23.6828C11.0815 23.6828 11.4716 23.6277 11.4716 23.3478V17.4077C11.4716 13.8666 10.1612 12.6395 8.82249 12.6395C7.48377 12.6395 6.11821 13.8948 6.08993 15.2604V23.3478C6.08993 23.6263 6.50837 23.6828 7.84708 23.6828C8.01389 23.6828 8.01389 25.3 7.84708 25.3H0.147018C-0.019791 25.3 -0.019791 23.6828 0.147018 23.6828V23.6814Z" fill="#F8B075"/>
<path d="M34.0558 25.3255C30.7098 25.3255 27.4188 22.8997 27.4188 18.1032C27.4188 13.8369 30.1514 10.6293 33.8608 10.5459C36.6767 10.4908 39.9394 12.9435 39.8008 17.9633H31.6018C31.5184 21.0591 33.3306 22.8149 35.338 22.8149C36.4534 22.8149 37.6253 22.2847 38.5724 21.1143C38.7675 20.8909 39.6595 22.1745 39.4093 22.5646C38.1271 24.4052 36.0632 25.3255 34.0544 25.3255H34.0558ZM35.5345 16.3461C35.5345 14.1436 34.8093 12.1631 33.7491 12.1631C32.2987 12.1631 31.6852 14.8674 31.6569 16.3461H35.5331H35.5345Z" fill="#F8B075"/>
<path d="M46.8846 23.3464C46.8846 23.6249 47.3313 23.6814 48.7251 23.6814C48.9202 23.6814 48.9202 25.2986 48.7251 25.2986H40.9176C40.7225 25.2986 40.7225 23.6814 40.9176 23.6814C42.3115 23.6814 42.703 23.6263 42.703 23.3464V13.8651C42.703 13.1682 42.3963 12.9731 40.9176 12.9731C40.6943 12.9731 40.6943 11.3842 40.9176 11.3559L46.886 10.5191V12.1928C47.8897 11.1057 49.005 10.5191 50.4271 10.5191C54.5818 10.5473 54.6935 14.7571 52.8812 15.5672C52.5462 15.734 52.2394 15.7905 51.9892 15.7905C50.4271 15.7905 50.4837 13.2248 49.3683 12.918C48.3081 12.6395 46.9977 13.9217 46.886 15.2053V23.3478L46.8846 23.3464Z" fill="#F8B075"/>
<path d="M65.2604 15.9559C62.1928 16.5143 63.6149 12.1631 61.886 12.1631C60.4922 12.1631 59.1818 14.5889 59.1535 17.8247C59.1535 21.7009 60.9106 23.3747 62.8346 23.3747C63.6997 23.3747 64.5917 23.0396 65.4003 22.3992C65.7622 22.1208 66.3757 23.6263 66.0139 23.9613C64.9819 24.8265 63.5315 25.3 62.026 25.3C58.6234 25.3 54.9423 22.9859 54.9705 17.8261C54.9988 14.1733 57.7314 10.5473 61.886 10.5473C67.0175 10.5473 67.296 15.5672 65.2604 15.9573V15.9559Z" fill="#F8B075"/>
<path d="M71.8691 25.2703C67.0727 25.6054 66.5143 20.4187 70.112 18.0764C71.6458 16.8211 73.598 15.9573 75.1601 15.7057C75.1601 13.7817 74.8533 12.0246 73.5146 12.1645C71.5072 12.3879 72.8177 16.4592 69.9452 15.929C67.7979 15.5389 68.3831 10.7142 73.5146 10.5473C78.0043 10.4074 79.343 13.6983 79.343 16.4874V22.2324C79.343 22.8177 79.5381 23.041 79.8166 23.041C80.0117 23.041 80.235 22.9294 80.4301 22.8177C80.7369 22.6226 81.0719 24.1847 80.7368 24.4349C80.2067 24.8533 78.9246 25.3 77.5293 25.3C76.2189 25.3 75.3537 24.7982 75.2152 24.1564C74.3501 24.7416 73.1513 25.1883 71.8691 25.2718V25.2703ZM75.1601 17.2946C73.9048 17.7965 72.6777 18.5217 72.1208 19.6653C71.6189 20.6138 71.6472 22.4261 72.8459 22.8728C73.041 22.9279 73.2644 22.9845 73.4877 22.9845C73.9896 22.9845 74.5748 22.7894 75.1615 22.4544V17.296L75.1601 17.2946Z" fill="#F8B075"/>
<path d="M91.1949 23.9599C90.163 24.7968 88.8808 25.2421 87.5704 25.2421C84.5593 25.2421 81.5469 22.8997 81.6585 17.7965C81.7702 13.3902 84.6979 10.184 88.9373 10.6025C90.081 10.6859 90.8062 11.216 91.1963 11.7178V4.0206C91.1963 3.29541 90.6662 3.1286 88.9091 3.1286C88.6574 3.1286 88.6574 1.53967 88.9091 1.5114L95.3793 0.67453V21.9511C95.3793 22.648 95.5743 22.8163 97.053 22.8163C97.2764 22.8163 97.2764 24.4335 97.053 24.4617L91.1963 25.2986V23.9599H91.1949ZM91.1949 15.7057C91.1949 14.6186 90.8882 12.443 88.9359 12.3031C87.012 12.0797 85.7849 14.5621 85.8401 17.7965C85.9235 21.3659 87.2339 23.2898 88.7677 23.2898C89.5763 23.2898 90.4132 22.7597 91.1935 21.6726V15.7043L91.1949 15.7057Z" fill="#F8B075"/>
<path d="M100.731 13.8651C100.731 13.1682 100.313 12.9731 98.9741 12.9731C98.7791 12.9731 98.7791 11.3842 98.9741 11.3559L104.914 10.5191V23.3464C104.914 23.6249 105.333 23.6814 106.671 23.6814C106.838 23.6814 106.838 25.2986 106.671 25.2986H98.9741C98.8073 25.2986 98.8073 23.6814 98.9741 23.6814C100.313 23.6814 100.731 23.6263 100.731 23.3464V13.8651ZM102.6 4.35563C105.584 4.35563 105.584 8.81706 102.6 8.81706C99.6442 8.81706 99.6442 4.35563 102.6 4.35563Z" fill="#F8B075"/>
<path d="M108.373 12.1363H107.035C106.783 12.1363 106.783 10.5191 107.035 10.5191C108.597 10.5191 110.604 8.67852 111.218 5.72261C111.246 5.58266 111.58 5.49926 111.915 5.49926C112.25 5.49926 112.556 5.58266 112.556 5.72261C112.556 6.72629 112.556 9.6822 112.556 10.5191H115.205C115.484 10.5191 115.484 12.1363 115.205 12.1363H112.556V20.1671C112.556 22.2028 113.282 23.1782 114.257 23.1782C114.704 23.1782 115.177 22.9831 115.651 22.5929C115.958 22.3413 116.626 23.7917 116.293 24.0984C115.427 24.8788 114.312 25.2972 113.17 25.2972C110.799 25.2972 108.373 23.5683 108.373 20.1657V12.1349V12.1363Z" fill="#F8B075"/>
<path d="M123.766 10.4908C133.443 10.4908 133.388 25.2986 123.738 25.2986C114.145 25.2986 114.257 10.4908 123.766 10.4908ZM123.766 12.1363C119.862 12.1363 119.695 23.6814 123.738 23.6814C127.809 23.6814 127.838 12.1363 123.766 12.1363Z" fill="#F8B075"/>
</g>
<defs>
<clipPath id="clip0_90_253">
<rect width="131" height="24.6509" fill="white" transform="translate(0 0.67453)"/>
</clipPath>
</defs>
</svg>
